M48
; DRILL file {KiCad (5.1.2-1)-1} date Saturday, August 24, 2019 at 11:24:37 PM
; FORMAT={-:-/ absolute / metric / decimal}
; #@! TF.CreationDate,2019-08-24T23:24:37-04:00
; #@! TF.GenerationSoftware,Kicad,Pcbnew,(5.1.2-1)-1
; #@! TF.FileFunction,Plated,1,2,PTH
FMAT,2
METRIC
T1C0.400
T2C0.500
T3C0.762
T4C0.800
T5C0.920
T6C1.000
T7C1.500
T8C1.700
T9C2.330
T10C3.200
%
G90
G05
T1
X51.562Y-27.813
X51.562Y-33.02
X51.562Y-37.338
X51.562Y-41.529
X52.0Y-21.0
X52.0Y-24.0
X54.54Y-21.0
X57.023Y-41.529
X57.08Y-21.0
X59.62Y-21.0
X62.16Y-21.0
X62.16Y-23.54
X62.16Y-26.08
X62.16Y-28.62
X62.16Y-31.16
X62.16Y-33.7
X62.16Y-36.24
X62.16Y-38.78
X62.16Y-41.32
X62.16Y-43.86
X62.16Y-46.4
X62.16Y-48.94
X62.16Y-51.48
X62.16Y-54.02
X62.16Y-56.56
X62.16Y-59.1
X62.16Y-61.64
X62.16Y-64.18
X62.16Y-66.72
X62.16Y-69.26
X62.16Y-71.8
X62.16Y-74.34
X62.16Y-76.88
X62.16Y-79.42
X62.16Y-81.96
X62.16Y-84.5
X62.16Y-87.04
X62.16Y-89.58
X62.16Y-92.12
X62.16Y-94.66
X62.16Y-97.2
X62.16Y-112.44
X62.16Y-114.98
X62.23Y-111.76
X62.23Y-118.11
X62.484Y-105.41
X63.754Y-100.076
X63.754Y-102.362
X63.754Y-118.11
X64.0Y-115.137
X64.008Y-106.045
X64.008Y-107.95
X64.389Y-42.672
X64.7Y-21.0
X65.659Y-118.11
X66.04Y-111.506
X66.421Y-39.243
X66.548Y-102.362
X66.802Y-61.722
X66.802Y-78.994
X66.802Y-95.541
X66.802Y-98.044
X67.24Y-21.0
X67.31Y-107.061
X68.199Y-52.07
X68.199Y-57.785
X68.199Y-99.642
X68.199Y-101.092
X68.199Y-118.11
X68.58Y-36.83
X68.58Y-42.672
X69.342Y-49.53
X69.342Y-111.76
X69.469Y-53.721
X69.596Y-61.722
X69.596Y-78.994
X69.596Y-95.541
X69.596Y-97.917
X69.78Y-21.0
X69.85Y-101.092
X70.739Y-118.11
X70.993Y-34.671
X71.12Y-40.132
X72.32Y-21.0
X72.39Y-95.541
X72.517Y-97.917
X73.152Y-32.258
X73.279Y-118.11
X73.406Y-43.18
X73.914Y-37.338
X74.422Y-46.99
X74.676Y-52.578
X74.676Y-55.88
X74.676Y-58.674
X74.676Y-61.722
X74.676Y-64.897
X74.676Y-68.707
X74.676Y-72.136
X74.676Y-78.994
X74.676Y-95.541
X74.676Y-97.917
X74.86Y-21.0
X75.692Y-113.03
X75.819Y-118.11
X75.821Y-99.917
X75.946Y-39.624
X76.25Y-110.75
X76.327Y-29.464
X76.327Y-34.925
X76.708Y-106.68
X76.835Y-113.03
X76.962Y-49.53
X76.962Y-52.578
X76.962Y-55.88
X76.962Y-58.674
X76.962Y-61.722
X76.962Y-68.707
X76.962Y-72.136
X76.962Y-75.565
X76.962Y-78.994
X76.962Y-82.423
X76.962Y-86.36
X76.962Y-90.17
X76.962Y-93.98
X76.962Y-95.541
X76.962Y-97.917
X77.216Y-46.99
X77.4Y-21.0
X77.724Y-109.22
X77.978Y-104.902
X77.978Y-115.57
X78.359Y-118.11
X78.486Y-43.688
X79.248Y-115.353
X79.502Y-26.67
X79.502Y-32.258
X79.502Y-39.116
X79.756Y-36.068
X79.756Y-111.252
X79.94Y-21.0
X80.339Y-100.367
X80.518Y-102.362
X80.899Y-118.11
X81.026Y-49.53
X81.788Y-40.64
X81.788Y-52.578
X81.788Y-95.541
X81.788Y-97.917
X81.915Y-113.538
X82.169Y-26.035
X82.296Y-29.591
X82.296Y-36.068
X82.423Y-69.342
X82.48Y-21.0
X82.55Y-23.622
X82.55Y-82.423
X82.55Y-86.36
X82.55Y-90.17
X82.677Y-47.927
X83.312Y-105.664
X83.439Y-118.11
X84.455Y-113.538
X84.836Y-97.917
X85.02Y-21.0
X85.09Y-102.362
X85.09Y-107.696
X85.217Y-90.17
X85.598Y-91.821
X85.852Y-32.258
X85.852Y-36.576
X85.979Y-118.11
X86.487Y-24.638
X86.614Y-113.538
X86.741Y-107.188
X87.249Y-96.52
X87.56Y-21.0
X87.63Y-26.67
X88.392Y-99.568
X88.519Y-91.821
X88.519Y-118.11
X88.646Y-95.377
X88.9Y-113.538
X89.662Y-102.362
X89.662Y-107.188
X90.1Y-21.0
X90.17Y-36.576
X90.424Y-93.726
X90.551Y-89.662
X90.805Y-113.411
X91.059Y-118.11
X91.567Y-36.068
X91.694Y-32.258
X91.821Y-98.298
X92.456Y-91.694
X92.456Y-110.363
X92.64Y-21.0
X92.71Y-36.766
X92.71Y-40.196
X93.218Y-102.362
X93.345Y-96.52
X93.599Y-118.11
X93.726Y-107.188
X94.234Y-97.79
X94.234Y-99.441
X94.234Y-101.092
X94.615Y-89.535
X94.742Y-109.933
X95.18Y-21.0
X95.25Y-26.416
X95.25Y-64.897
X95.298Y-49.784
X95.377Y-60.706
X95.377Y-76.835
X95.504Y-94.488
X95.504Y-105.029
X96.139Y-118.11
X96.266Y-32.258
X96.266Y-37.846
X96.266Y-42.164
X96.266Y-81.026
X96.266Y-83.82
X96.266Y-85.979
X96.266Y-87.884
X96.393Y-46.863
X96.393Y-74.422
X96.393Y-112.522
X96.52Y-57.15
X96.52Y-68.834
X96.647Y-51.435
X96.774Y-96.012
X96.901Y-99.441
X96.901Y-100.965
X97.155Y-102.489
X97.663Y-92.456
X97.72Y-21.0
X98.679Y-118.11
X98.87Y-102.489
X98.933Y-105.029
X99.314Y-90.805
X99.568Y-61.214
X99.949Y-88.9
X99.949Y-100.965
X100.076Y-39.37
X100.076Y-74.422
X100.203Y-77.724
X100.203Y-83.82
X100.26Y-21.0
X100.33Y-111.633
X100.584Y-94.869
X100.711Y-71.12
X100.941Y-104.545
X101.219Y-57.15
X101.219Y-118.11
X101.346Y-32.258
X101.346Y-41.813
X101.346Y-45.593
X101.461Y-43.724
X101.461Y-47.533
X101.473Y-49.403
X101.727Y-65.786
X101.805Y-99.314
X102.235Y-87.2
X102.235Y-100.965
X102.362Y-37.084
X102.489Y-69.469
X102.489Y-110.744
X102.489Y-112.395
X102.743Y-59.182
X102.8Y-21.0
X102.87Y-104.521
X102.997Y-61.214
X103.124Y-40.005
X103.124Y-90.678
X103.124Y-92.583
X103.632Y-51.435
X103.759Y-118.11
X103.82Y-95.669
X103.886Y-44.958
X104.775Y-67.31
X104.775Y-87.122
X104.902Y-85.09
X105.156Y-73.865
X105.156Y-75.74
X105.156Y-94.869
X105.34Y-21.0
X105.41Y-26.416
X105.41Y-29.21
X105.41Y-32.258
X105.41Y-100.838
X105.537Y-97.536
X105.791Y-112.395
X106.045Y-43.561
X106.045Y-46.99
X106.172Y-86.868
X106.299Y-118.11
X106.807Y-65.278
X106.909Y-94.524
X107.061Y-69.088
X107.315Y-58.166
X107.442Y-84.201
X107.823Y-102.078
X107.823Y-104.678
X107.88Y-21.0
X107.95Y-49.874
X107.95Y-36.606
X108.712Y-96.139
X108.839Y-118.11
X109.22Y-43.561
X109.22Y-46.863
X109.601Y-60.706
X109.601Y-65.278
X109.601Y-69.088
X109.601Y-104.394
X109.776Y-99.441
X109.855Y-75.438
X109.855Y-79.629
X110.26Y-92.734
X110.363Y-63.5
X110.42Y-21.0
X110.49Y-85.217
X110.617Y-88.987
X111.125Y-51.562
X111.379Y-118.11
X111.76Y-81.65
X111.838Y-86.487
X111.887Y-99.822
X112.111Y-95.25
X112.802Y-37.606
X112.903Y-40.005
X112.96Y-21.0
X113.03Y-61.849
X113.03Y-64.643
X113.03Y-93.472
X113.284Y-51.181
X113.284Y-102.997
X113.284Y-106.299
X113.411Y-95.25
X113.665Y-86.487
X113.792Y-26.543
X113.919Y-75.438
X113.919Y-79.629
X113.919Y-118.11
X114.427Y-89.535
X114.493Y-48.247
X114.681Y-38.862
X115.062Y-29.972
X115.062Y-84.201
X115.111Y-37.163
X115.5Y-21.0
X115.824Y-35.687
X115.824Y-109.22
X115.824Y-112.395
X115.951Y-81.915
X115.951Y-106.426
X116.078Y-73.406
X116.078Y-91.567
X116.332Y-46.228
X116.332Y-52.07
X116.459Y-118.11
X116.472Y-48.247
X116.586Y-50.165
X116.586Y-57.023
X116.586Y-86.36
X116.586Y-89.535
X116.586Y-93.472
X116.84Y-37.211
X117.094Y-102.616
X117.094Y-104.569
X117.094Y-116.549
X117.348Y-70.231
X117.602Y-26.543
X118.04Y-21.0
X118.11Y-115.824
X118.188Y-78.359
X118.237Y-46.307
X118.237Y-48.181
X118.364Y-43.307
X118.44Y-59.873
X118.999Y-118.11
X119.126Y-99.187
X119.253Y-91.186
X119.253Y-34.212
X119.459Y-64.516
X119.634Y-62.484
X119.634Y-84.582
X119.761Y-112.395
X120.142Y-78.359
X120.269Y-50.927
X120.523Y-42.037
X120.523Y-88.9
X120.58Y-21.0
X120.777Y-46.482
X120.904Y-36.576
X121.031Y-69.215
X121.334Y-64.516
X121.539Y-118.11
X121.793Y-112.395
X121.92Y-82.55
X122.222Y-80.343
X122.252Y-78.359
X123.12Y-21.0
X123.444Y-112.395
X123.825Y-55.499
X124.079Y-118.11
X124.167Y-62.24
X124.317Y-45.893
X124.653Y-84.67
X124.714Y-28.956
X124.714Y-71.628
X124.714Y-74.041
X124.714Y-76.454
X124.714Y-80.01
X125.095Y-52.07
X125.222Y-36.576
X125.476Y-100.838
X125.603Y-99.206
X125.66Y-21.0
X125.857Y-68.072
X126.111Y-42.672
X126.316Y-72.39
X126.365Y-49.911
X126.492Y-55.88
X126.619Y-118.11
X127.0Y-76.454
X127.0Y-80.01
X127.381Y-112.522
X127.48Y-45.946
X127.762Y-99.108
X128.016Y-49.911
X128.016Y-52.07
X128.016Y-59.055
X128.2Y-21.0
X128.205Y-86.933
X128.205Y-88.265
X128.524Y-100.838
X128.524Y-103.378
X128.651Y-42.672
X129.159Y-118.11
X129.286Y-45.847
X129.286Y-59.055
X130.048Y-68.199
X130.175Y-80.01
X130.175Y-83.312
X130.175Y-85.725
X130.175Y-87.757
X130.175Y-90.17
X130.302Y-28.956
X130.302Y-34.671
X130.302Y-37.338
X130.302Y-40.132
X130.302Y-73.66
X130.302Y-76.835
X130.373Y-64.44
X130.556Y-59.055
X130.74Y-21.0
X130.81Y-62.24
X130.937Y-46.736
X130.937Y-49.911
X130.937Y-51.943
X130.937Y-56.007
X131.699Y-118.11
X131.826Y-59.055
X131.826Y-104.394
X132.588Y-71.628
X132.715Y-63.881
X132.715Y-66.421
X133.096Y-59.055
X133.28Y-21.0
X133.477Y-111.125
X133.985Y-27.813
X134.112Y-40.132
X134.112Y-46.736
X134.112Y-49.911
X134.239Y-118.11
X134.366Y-59.055
X134.445Y-108.585
X134.493Y-68.453
X134.493Y-74.295
X134.493Y-80.01
X134.493Y-85.725
X134.493Y-97.028
X134.493Y-102.87
X134.493Y-109.982
X134.62Y-91.313
X134.874Y-29.591
X134.874Y-33.02
X135.382Y-61.341
X135.636Y-59.055
X135.82Y-21.0
X136.398Y-109.982
X136.779Y-118.11
X136.906Y-59.055
X137.287Y-33.02
X137.287Y-40.005
X137.287Y-46.736
X137.287Y-49.911
X137.287Y-51.943
X137.287Y-56.007
X138.176Y-26.035
X138.176Y-59.055
X138.176Y-109.982
X138.36Y-21.0
X138.684Y-54.483
X139.319Y-118.11
X139.446Y-59.055
X140.208Y-109.982
X140.716Y-28.956
X140.716Y-34.29
X140.716Y-40.005
X140.716Y-46.736
X140.716Y-49.911
X140.716Y-51.943
X140.716Y-56.007
X140.716Y-59.055
X140.9Y-21.0
X141.859Y-118.11
X141.986Y-59.055
X142.24Y-109.982
X142.367Y-45.999
X143.256Y-56.007
X143.256Y-59.055
X143.44Y-21.0
X143.51Y-36.576
X144.272Y-109.982
X144.399Y-32.385
X144.399Y-118.11
X144.526Y-59.055
X144.78Y-46.736
X144.78Y-49.911
X145.796Y-56.007
X145.796Y-59.055
X145.98Y-21.0
X146.0Y-107.0
X146.05Y-109.982
X146.304Y-38.735
X146.812Y-45.999
X146.812Y-51.386
X146.939Y-118.11
X147.066Y-59.055
X147.066Y-61.468
X147.955Y-109.982
X148.209Y-41.148
X148.336Y-56.007
X148.336Y-59.055
X148.52Y-21.0
X148.59Y-26.162
X148.59Y-36.322
X149.098Y-46.736
X149.098Y-49.911
X149.479Y-118.11
X149.606Y-59.055
X149.987Y-109.982
X150.0Y-109.0
X150.876Y-43.561
X150.876Y-56.007
X150.876Y-59.055
X150.876Y-60.325
X150.876Y-61.595
X150.876Y-62.865
X150.876Y-64.135
X150.876Y-65.405
X150.876Y-66.675
X150.876Y-67.945
X150.876Y-69.215
X150.876Y-70.485
X150.876Y-71.755
X150.876Y-73.025
X150.876Y-74.295
X150.876Y-75.565
X150.876Y-76.835
X150.876Y-78.105
X150.876Y-79.375
X150.876Y-80.645
X150.876Y-81.915
X150.876Y-83.185
X150.876Y-84.455
X150.876Y-85.725
X150.876Y-86.995
X150.876Y-88.265
X150.876Y-89.535
X150.876Y-90.805
X150.876Y-92.075
X150.876Y-93.345
X150.876Y-94.615
X150.876Y-95.885
X150.876Y-97.155
X151.06Y-21.0
X151.13Y-38.608
X152.019Y-118.11
X152.146Y-59.055
X152.4Y-49.911
X152.527Y-97.155
X153.0Y-100.965
X153.416Y-46.736
X153.416Y-56.007
X153.416Y-59.055
X153.6Y-21.0
X153.67Y-40.64
X153.67Y-110.0
X154.051Y-97.155
X154.559Y-118.11
X154.686Y-59.055
X154.813Y-26.162
X154.813Y-27.686
X154.813Y-29.591
X154.813Y-31.496
X154.813Y-33.401
X154.813Y-35.433
X154.813Y-37.465
X154.813Y-39.751
X154.813Y-42.037
X154.987Y-46.013
X155.0Y-110.0
X155.194Y-98.298
X155.829Y-44.196
X155.956Y-49.911
X155.956Y-51.943
X155.956Y-56.007
X155.956Y-59.055
X156.14Y-21.0
X156.21Y-110.0
X156.337Y-62.865
X156.337Y-66.675
X156.337Y-70.485
X156.337Y-74.549
X156.337Y-99.441
X157.099Y-118.11
X157.353Y-100.584
X157.861Y-76.327
X158.369Y-26.162
X158.369Y-91.694
X158.369Y-95.885
X158.68Y-21.0
X159.512Y-59.055
X159.512Y-62.865
X159.512Y-66.675
X159.512Y-70.485
X159.639Y-51.943
X159.639Y-56.007
X159.639Y-118.11
X159.766Y-45.085
X159.766Y-46.482
X159.893Y-27.686
X159.893Y-29.591
X159.893Y-31.496
X159.893Y-33.401
X159.893Y-35.433
X159.893Y-37.465
X159.893Y-39.497
X160.0Y-110.0
X160.147Y-85.979
X160.147Y-89.662
X160.655Y-78.994
X161.036Y-26.162
X161.036Y-56.007
X161.036Y-59.055
X161.036Y-109.982
X161.181Y-48.181
X161.22Y-21.0
X162.052Y-50.292
X162.179Y-46.482
X162.179Y-96.012
X162.179Y-109.982
X162.179Y-118.11
X162.179Y-88.138
X162.181Y-48.181
X162.306Y-59.055
X162.56Y-20.955
X162.56Y-22.098
X163.068Y-29.591
X163.068Y-31.496
X163.068Y-33.401
X163.068Y-35.433
X163.068Y-37.465
X163.068Y-39.497
X163.068Y-40.767
X163.449Y-109.982
X163.576Y-51.943
X163.576Y-56.007
X163.576Y-59.055
X163.76Y-21.0
X163.83Y-76.835
X163.83Y-81.661
X163.83Y-91.44
X164.338Y-28.321
X164.592Y-31.496
X164.592Y-41.402
X164.592Y-42.672
X164.719Y-109.982
X164.719Y-118.11
X164.846Y-59.055
X164.973Y-22.098
X165.735Y-33.401
X165.735Y-35.433
X165.735Y-37.465
X165.735Y-39.497
X165.862Y-100.33
X165.989Y-41.402
X165.989Y-45.212
X165.989Y-109.982
X166.0Y-42.672
X166.0Y-43.942
X166.0Y-46.482
X166.0Y-50.0
X166.116Y-56.007
X166.116Y-59.055
X166.116Y-78.994
X166.243Y-28.321
X166.243Y-29.591
X166.243Y-31.496
X166.3Y-21.0
X166.37Y-84.455
X166.37Y-87.884
X166.751Y-62.865
X166.751Y-64.897
X166.751Y-66.929
X167.005Y-57.277
X167.259Y-109.982
X167.259Y-118.11
X167.513Y-22.098
X167.64Y-29.591
X167.934Y-55.816
X168.0Y-41.402
X168.0Y-50.0
X168.021Y-51.435
X168.021Y-70.485
X168.021Y-76.073
X168.021Y-81.788
X168.275Y-44.196
X168.275Y-45.085
X168.275Y-45.974
X168.529Y-26.794
X168.529Y-29.591
X168.529Y-31.496
X168.656Y-109.982
X168.84Y-21.0
X169.418Y-29.591
X169.418Y-50.0
X169.418Y-51.435
X169.418Y-52.832
X169.799Y-109.982
X169.799Y-118.11
X170.18Y-22.098
X170.18Y-92.075
X170.561Y-41.402
X171.069Y-82.423
X171.069Y-109.982
X171.196Y-31.496
X171.196Y-52.832
X171.196Y-55.499
X171.196Y-59.055
X171.196Y-64.262
X171.196Y-66.675
X171.196Y-76.962
X171.196Y-78.072
X171.196Y-79.121
X171.196Y-65.499
X171.38Y-21.0
X171.45Y-33.655
X171.704Y-42.799
X171.831Y-100.33
X172.339Y-109.982
X172.339Y-118.11
X172.466Y-59.055
X172.593Y-49.657
X172.593Y-83.947
X172.72Y-22.098
X172.72Y-90.17
X172.974Y-52.832
X172.974Y-55.499
X172.974Y-64.77
X172.974Y-66.675
X172.974Y-70.485
X173.355Y-26.797
X173.355Y-27.94
X173.355Y-29.083
X173.609Y-32.844
X173.609Y-40.18
X173.609Y-109.982
X173.92Y-21.0
X173.99Y-78.486
X174.118Y-85.598
X174.244Y-49.657
X174.371Y-60.706
X174.752Y-52.832
X174.752Y-55.499
X174.879Y-109.982
X174.879Y-118.11
X175.006Y-46.736
X175.133Y-92.075
X175.133Y-100.33
X175.26Y-22.098
X175.26Y-26.67
X175.641Y-70.485
X175.641Y-81.28
X176.403Y-33.782
X176.403Y-34.925
X176.403Y-36.195
X176.403Y-37.719
X176.403Y-39.116
X176.403Y-58.42
X176.403Y-62.738
X176.403Y-90.17
X176.46Y-21.0
X176.53Y-52.832
X176.53Y-55.499
X176.784Y-78.486
X177.243Y-94.361
X177.292Y-73.276
X177.292Y-76.076
X177.419Y-108.204
X177.419Y-118.11
X177.8Y-22.098
X177.8Y-43.18
X177.927Y-33.782
X177.927Y-34.925
X177.927Y-36.195
X177.927Y-37.719
X177.927Y-39.116
X178.308Y-52.832
X178.308Y-55.499
X178.308Y-58.42
X178.308Y-60.833
X178.308Y-64.77
X178.308Y-66.675
X178.308Y-70.485
X178.689Y-100.33
X178.689Y-105.283
X178.943Y-92.075
X179.0Y-21.0
X179.173Y-85.574
X179.197Y-46.736
X179.91Y-75.946
X179.959Y-115.57
X179.959Y-118.11
X180.086Y-33.974
X180.086Y-36.449
X180.086Y-81.407
X180.213Y-38.608
X180.34Y-22.098
X180.34Y-30.988
X180.975Y-27.94
X181.54Y-21.0
X181.61Y-34.719
X181.61Y-39.624
X181.61Y-61.468
X181.61Y-64.135
X181.61Y-65.913
X181.737Y-56.261
X181.737Y-58.42
X182.118Y-80.137
X182.118Y-81.407
X182.499Y-113.03
X182.499Y-118.11
X182.75Y-27.94
X182.75Y-44.323
X182.75Y-45.85
X182.88Y-22.098
X183.137Y-73.279
X183.642Y-32.893
X183.642Y-36.116
X183.642Y-39.624
X183.642Y-50.038
X183.769Y-87.63
X184.08Y-21.0
X184.785Y-46.736
X184.785Y-48.461
X184.912Y-110.617
X185.039Y-118.11
X185.42Y-22.098
X185.42Y-34.925
X185.42Y-39.624
X185.547Y-30.353
X185.547Y-44.196
X185.547Y-45.085
X185.547Y-45.974
X185.674Y-27.051
X185.674Y-27.94
X185.674Y-28.829
X185.936Y-76.97
X186.055Y-61.849
X186.055Y-64.516
X186.055Y-67.691
X186.055Y-71.12
X186.055Y-74.041
X186.055Y-85.344
X186.309Y-97.663
X186.309Y-100.33
X186.309Y-102.87
X186.309Y-105.41
X186.62Y-21.0
X187.198Y-26.797
X187.579Y-118.11
X187.706Y-54.737
X187.96Y-22.098
X188.34Y-52.776
X188.34Y-71.191
X188.84Y-64.191
X188.849Y-34.925
X188.849Y-36.576
X188.849Y-38.1
X188.849Y-39.37
X188.849Y-40.64
X188.849Y-42.037
X188.849Y-43.561
X188.849Y-54.737
X189.094Y-77.399
X189.16Y-21.0
X189.992Y-54.737
X190.119Y-61.976
X190.119Y-118.11
X190.881Y-34.925
X191.008Y-57.912
X191.643Y-47.498
X191.7Y-21.0
X191.77Y-61.976
X191.77Y-64.77
X192.024Y-67.691
X192.024Y-74.041
X192.532Y-55.499
X192.659Y-118.11
X192.693Y-42.706
X193.04Y-49.276
X193.04Y-50.8
X193.675Y-60.022
X193.675Y-61.849
X194.24Y-21.0
X194.31Y-26.67
X194.34Y-45.776
X194.564Y-34.925
X195.199Y-118.11
X195.453Y-49.276
X195.58Y-67.691
X195.58Y-71.247
X195.58Y-74.041
X195.707Y-61.976
X195.755Y-60.022
X195.834Y-42.799
X196.088Y-53.848
X196.78Y-21.0
X196.977Y-32.512
X197.485Y-42.799
X197.739Y-61.976
X197.739Y-64.135
X197.739Y-71.247
X197.739Y-87.63
X197.739Y-90.17
X197.739Y-92.71
X197.739Y-95.25
X197.739Y-97.79
X197.739Y-100.33
X197.739Y-102.87
X197.739Y-105.41
X197.739Y-107.95
X197.739Y-110.49
X197.739Y-113.03
X197.739Y-115.57
X197.739Y-118.11
X197.993Y-55.626
X197.994Y-77.399
X198.0Y-22.0
T2
X107.6Y-110.0
X108.303Y-108.303
X108.303Y-111.697
X110.0Y-107.6
X110.0Y-112.4
X111.697Y-108.303
X111.697Y-111.697
X112.4Y-110.0
X187.6Y-30.0
X188.303Y-28.303
X188.303Y-31.697
X190.0Y-27.6
X190.0Y-32.4
X191.697Y-28.303
X191.697Y-31.697
X192.4Y-30.0
X187.6Y-110.0
X188.303Y-108.303
X188.303Y-111.697
X190.0Y-107.6
X190.0Y-112.4
X191.697Y-108.303
X191.697Y-111.697
X192.4Y-110.0
X107.6Y-30.0
X108.303Y-28.303
X108.303Y-31.697
X110.0Y-27.6
X110.0Y-32.4
X111.697Y-28.303
X111.697Y-31.697
X112.4Y-30.0
T4
X86.814Y-73.152
X89.254Y-73.152
X91.694Y-73.152
X86.814Y-61.468
X89.254Y-61.468
X91.694Y-61.468
X86.794Y-43.942
X89.234Y-43.942
X91.674Y-43.942
X86.794Y-79.121
X89.234Y-79.121
X91.674Y-79.121
X86.814Y-49.784
X89.254Y-49.784
X91.694Y-49.784
X86.794Y-67.31
X89.234Y-67.31
X91.674Y-67.31
X86.794Y-55.626
X89.234Y-55.626
X91.674Y-55.626
X86.814Y-85.09
X89.254Y-85.09
X91.694Y-85.09
T5
X184.5Y-93.0
X184.5Y-95.5
X186.5Y-93.0
X186.5Y-95.5
T6
X119.84Y-107.46
X119.84Y-110.0
X122.38Y-107.46
X122.38Y-110.0
X124.92Y-107.46
X124.92Y-110.0
X127.46Y-107.46
X127.46Y-110.0
X130.0Y-107.46
X130.0Y-110.0
X71.46Y-104.2
X71.46Y-106.74
X71.46Y-109.28
X71.46Y-111.82
X71.46Y-114.36
X74.0Y-104.2
X74.0Y-106.74
X74.0Y-109.28
X74.0Y-111.82
X74.0Y-114.36
X71.5Y-44.9
X71.5Y-47.44
X71.5Y-49.98
X71.5Y-52.52
X71.5Y-55.06
X71.5Y-57.6
X196.977Y-26.035
X196.977Y-28.575
T7
X155.0Y-106.045
T8
X152.46Y-103.505
X152.46Y-108.585
X157.54Y-103.505
X157.54Y-108.585
T9
X189.21Y-88.23
X189.21Y-100.27
T10
X190.0Y-110.0
X110.0Y-30.0
X110.0Y-110.0
X190.0Y-30.0
T3
G00X132.347Y-30.19
M15
G01X132.585Y-30.19
M16
G05
G00X132.347Y-33.09
M15
G01X132.585Y-33.09
M16
G05
G00X132.347Y-35.99
M15
G01X132.585Y-35.99
M16
G05
G00X132.347Y-38.59
M15
G01X132.585Y-38.59
M16
G05
G00X136.647Y-30.99
M15
G01X136.885Y-30.99
M16
G05
T0
M30
